# Blender v2.79 (sub 0) OBJ File: ''
# www.blender.org
mtllib polaroid2.mtl
o mesh1849549558
v -0.640000 0.040000 0.790000
v -0.640000 0.040000 0.530000
v -0.640000 -0.040000 0.530000
v -0.640000 -0.040000 0.790000
v 0.640000 -0.040000 0.530000
v 0.640000 0.040000 0.530000
v 0.640000 0.040000 0.790000
v 0.640000 -0.040000 0.790000
vt -0.209246 -0.008137
vt -0.188089 0.006975
vt -0.183439 0.000465
vt -0.204596 -0.014647
vt 0.183439 0.000465
vt 0.188089 0.006975
vt 0.209246 -0.008137
vt 0.204596 -0.014647
vt 0.095587 -0.175366
vt 0.138638 -0.054823
vt 0.163123 -0.063568
vt 0.120072 -0.184111
vt -0.163123 -0.063568
vt -0.138638 -0.054823
vt -0.095587 -0.175366
vt -0.120072 -0.184111
vt 0.097940 0.043380
vt 0.105095 0.046957
vt 0.162338 -0.067529
vt 0.155183 -0.071107
vt -0.162338 -0.067529
vt -0.105095 0.046957
vt -0.097940 0.043380
vt -0.155183 -0.071107
vn -1.0000 0.0000 0.0000
vn 1.0000 0.0000 0.0000
vn 0.0000 -1.0000 -0.0000
vn 0.0000 1.0000 0.0000
vn 0.0000 0.0000 1.0000
vn 0.0000 0.0000 -1.0000
usemtl mat21
s 1
f 1/1/1 2/2/1 3/3/1 4/4/1
f 5/5/2 6/6/2 7/7/2 8/8/2
f 3/9/3 5/10/3 8/11/3 4/12/3
f 7/13/4 6/14/4 2/15/4 1/16/4
f 8/17/5 7/18/5 1/19/5 4/20/5
f 2/21/6 6/22/6 5/23/6 3/24/6
o mesh1350158991
v 0.560000 0.040000 -0.540000
v 0.560000 0.040000 0.540000
v 0.560000 -0.040000 0.540000
v 0.560000 -0.040000 -0.540000
v -0.560000 -0.040000 0.540000
v -0.560000 0.040000 0.540000
v -0.560000 0.040000 -0.540000
v -0.560000 -0.040000 -0.540000
vt 0.510000 0.230000
vt 0.510000 0.770000
vt 0.490000 0.770000
vt 0.490000 0.230000
vt 0.490000 0.770000
vt 0.510000 0.770000
vt 0.510000 0.230000
vt 0.490000 0.230000
vt 0.640000 0.770000
vt 0.360000 0.770000
vt 0.360000 0.230000
vt 0.640000 0.230000
vt 0.360000 0.230000
vt 0.360000 0.770000
vt 0.640000 0.770000
vt 0.640000 0.230000
vt 0.360000 0.480000
vt 0.360000 0.520000
vt 0.640000 0.520000
vt 0.640000 0.480000
vt 0.640000 0.520000
vt 0.360000 0.520000
vt 0.360000 0.480000
vt 0.640000 0.480000
vn 1.0000 0.0000 0.0000
vn -1.0000 0.0000 -0.0000
vn 0.0000 -1.0000 -0.0000
vn -0.0000 1.0000 0.0000
vn 0.0000 0.0000 -1.0000
vn -0.0000 0.0000 1.0000
usemtl mat23
s 1
f 9/25/7 10/26/7 11/27/7 12/28/7
f 13/29/8 14/30/8 15/31/8 16/32/8
f 11/33/9 13/34/9 16/35/9 12/36/9
f 15/37/10 14/38/10 10/39/10 9/40/10
f 16/41/11 15/42/11 9/43/11 12/44/11
f 10/45/12 14/46/12 13/47/12 11/48/12
o mesh1324783098
v -0.640000 0.040000 -0.620000
v -0.560000 0.040000 -0.620000
v -0.560000 -0.040000 -0.620000
v -0.640000 -0.040000 -0.620000
v -0.560000 -0.040000 0.540000
v -0.560000 0.040000 0.540000
v -0.640000 0.040000 0.540000
v -0.640000 -0.040000 0.540000
vt -0.162338 -0.067529
vt -0.158761 -0.060374
vt -0.151605 -0.063952
vt -0.155183 -0.071107
vt 0.151605 -0.063952
vt 0.158761 -0.060374
vt 0.162338 -0.067529
vt 0.155183 -0.071107
vt -0.010023 -0.129153
vt 0.099219 -0.168168
vt 0.096529 -0.175702
vt -0.012714 -0.136687
vt -0.096529 -0.175702
vt -0.099219 -0.168168
vt 0.010023 -0.129153
vt 0.012714 -0.136687
vt -0.184253 -0.000116
vt -0.188902 0.006394
vt -0.094509 0.073817
vt -0.089859 0.067307
vt 0.094509 0.073817
vt 0.188902 0.006394
vt 0.184253 -0.000116
vt 0.089859 0.067307
vn 0.0000 0.0000 -1.0000
vn 0.0000 0.0000 1.0000
vn 0.0000 -1.0000 -0.0000
vn 0.0000 1.0000 0.0000
vn -1.0000 0.0000 0.0000
vn 1.0000 0.0000 -0.0000
usemtl mat21
s 1
f 17/49/13 18/50/13 19/51/13 20/52/13
f 21/53/14 22/54/14 23/55/14 24/56/14
f 19/57/15 21/58/15 24/59/15 20/60/15
f 23/61/16 22/62/16 18/63/16 17/64/16
f 24/65/17 23/66/17 17/67/17 20/68/17
f 18/69/18 22/70/18 21/71/18 19/72/18
o mesh1534948405
v 0.560000 0.040000 -0.620000
v 0.560000 0.040000 -0.540000
v 0.560000 -0.040000 -0.540000
v 0.560000 -0.040000 -0.620000
v -0.560000 -0.040000 -0.540000
v -0.560000 0.040000 -0.540000
v -0.560000 0.040000 -0.620000
v -0.560000 -0.040000 -0.620000
vt 0.094509 0.073817
vt 0.101019 0.069167
vt 0.096369 0.062657
vt 0.089859 0.067307
vt -0.096369 0.062657
vt -0.101019 0.069167
vt -0.094509 0.073817
vt -0.089859 0.067307
vt 0.035181 -0.026369
vt -0.002489 -0.131844
vt -0.010023 -0.129153
vt 0.027647 -0.023678
vt 0.010023 -0.129153
vt 0.002489 -0.131844
vt -0.035181 -0.026369
vt -0.027647 -0.023678
vt -0.151605 -0.063952
vt -0.158761 -0.060374
vt -0.108673 0.039802
vt -0.101517 0.036224
vt 0.108673 0.039802
vt 0.158761 -0.060374
vt 0.151605 -0.063952
vt 0.101517 0.036224
vn 1.0000 0.0000 0.0000
vn -1.0000 0.0000 0.0000
vn 0.0000 -1.0000 -0.0000
vn 0.0000 1.0000 0.0000
vn 0.0000 0.0000 -1.0000
vn 0.0000 -0.0000 1.0000
usemtl mat21
s 1
f 25/73/19 26/74/19 27/75/19 28/76/19
f 29/77/20 30/78/20 31/79/20 32/80/20
f 27/81/21 29/82/21 32/83/21 28/84/21
f 31/85/22 30/86/22 26/87/22 25/88/22
f 32/89/23 31/90/23 25/91/23 28/92/23
f 26/93/24 30/94/24 29/95/24 27/96/24
o mesh565728600
v 0.640000 -0.040000 0.540000
v 0.640000 0.040000 0.540000
v 0.560000 0.040000 0.540000
v 0.560000 -0.040000 0.540000
v 0.560000 0.040000 -0.620000
v 0.640000 0.040000 -0.620000
v 0.640000 -0.040000 -0.620000
v 0.560000 -0.040000 -0.620000
vt 0.097940 0.043380
vt 0.105095 0.046957
vt 0.108673 0.039802
vt 0.101517 0.036224
vt -0.108673 0.039802
vt -0.105095 0.046957
vt -0.097940 0.043380
vt -0.101517 0.036224
vt -0.188902 0.006394
vt -0.094509 0.073817
vt -0.089859 0.067307
vt -0.184253 -0.000116
vt 0.089859 0.067307
vt 0.094509 0.073817
vt 0.188902 0.006394
vt 0.184253 -0.000116
vt 0.027647 -0.023678
vt 0.030338 -0.016144
vt 0.139580 -0.055159
vt 0.136889 -0.062693
vt -0.139580 -0.055159
vt -0.030338 -0.016144
vt -0.027647 -0.023678
vt -0.136889 -0.062693
vn 0.0000 0.0000 1.0000
vn 0.0000 0.0000 -1.0000
vn -1.0000 0.0000 0.0000
vn 1.0000 0.0000 0.0000
vn 0.0000 -1.0000 -0.0000
vn 0.0000 1.0000 0.0000
usemtl mat21
s 1
f 33/97/25 34/98/25 35/99/25 36/100/25
f 37/101/26 38/102/26 39/103/26 40/104/26
f 35/105/27 37/106/27 40/107/27 36/108/27
f 39/109/28 38/110/28 34/111/28 33/112/28
f 40/113/29 39/114/29 33/115/29 36/116/29
f 34/117/30 38/118/30 37/119/30 35/120/30
